<?xml version="1.0" standalone="no"?>
<!DOCTYPE svg PUBLIC "-//W3C//DTD SVG 20010904//EN"
 "http://www.w3.org/TR/2001/REC-SVG-20010904/DTD/svg10.dtd">
<svg version="1.0" xmlns="http://www.w3.org/2000/svg"
 width="467.000000pt" height="409.000000pt" viewBox="0 0 467.000000 409.000000"
 preserveAspectRatio="xMidYMid meet">
<metadata>
Created by potrace 1.16, written by Peter Selinger 2001-2019
</metadata>
<g transform="translate(0.000000,409.000000) scale(0.100000,-0.100000)"
fill="#000000" stroke="none">
<path d="M1183 4063 c637 -2 1677 -2 2310 0 634 1 113 2 -1158 2 -1270 0
-1789 -1 -1152 -2z"/>
<path d="M145 3340 c-3 -5 -2 -10 4 -10 21 0 34 -41 20 -66 -10 -20 -10 -29 1
-49 18 -34 28 -31 32 8 l3 32 115 3 c79 1 110 -1 100 -8 -8 -5 -48 -10 -87
-10 -66 0 -73 -2 -73 -20 0 -25 34 -27 58 -4 12 13 17 14 20 4 3 -7 -3 -17
-12 -22 -20 -11 -21 -38 -1 -38 8 0 15 -9 15 -20 0 -17 -7 -20 -40 -20 -46 0
-51 -11 -16 -30 33 -17 40 -39 19 -56 -17 -13 -17 -15 4 -33 22 -18 22 -19 23
-436 0 -251 4 -424 10 -435 6 -10 10 -68 10 -129 l0 -111 26 0 c14 0 31 6 37
13 34 35 37 81 37 520 0 285 3 437 10 437 7 0 10 -168 10 -485 0 -477 0 -485
20 -485 23 0 28 16 33 113 1 38 8 72 15 76 8 5 12 106 12 384 1 208 5 389 10
403 9 23 12 24 114 24 104 0 105 0 125 -29 19 -26 21 -44 21 -153 0 -69 3
-127 6 -130 3 -3 14 -4 24 -1 18 5 20 15 19 135 -1 114 -3 132 -20 149 -10 10
-19 21 -19 24 0 3 31 5 69 5 47 0 71 -4 74 -12 3 -10 7 -10 20 0 10 8 36 12
69 11 112 -6 210 0 205 14 -2 6 -12 12 -23 12 -25 0 -32 58 -10 80 18 19 34
19 38 1 2 -10 9 -11 25 -5 l23 8 -23 23 c-30 30 -60 32 -108 7 -46 -23 -49
-23 -49 -4 0 8 -4 15 -10 15 -5 0 -10 -7 -10 -15 0 -8 -7 -15 -16 -15 -24 0
-60 33 -56 52 2 9 -2 19 -7 23 -14 8 -14 58 0 88 13 29 77 67 113 67 31 0 32
-7 9 -29 -23 -21 -43 -57 -43 -76 0 -18 -17 -20 -22 -3 -6 18 -38 -16 -37 -39
0 -10 3 -13 6 -5 2 6 20 12 39 12 29 0 34 4 34 23 0 30 48 86 59 68 7 -10 14
-8 35 10 32 28 33 39 2 39 -52 0 -76 25 -33 33 12 3 -5 2 -38 0 -33 -3 -64
-11 -70 -17 -5 -7 -27 -20 -47 -29 -40 -19 -70 -58 -49 -65 6 -2 11 -21 11
-43 0 -36 -2 -39 -28 -39 -16 0 -34 8 -42 20 -15 21 -70 28 -70 10 0 -6 -30
-10 -69 -10 -61 0 -70 3 -76 20 -7 21 -25 28 -25 10 0 -5 -9 -10 -19 -10 -11
0 -23 -5 -26 -10 -12 -19 -25 1 -25 36 0 29 3 34 24 34 14 0 28 -4 31 -10 3
-5 26 -10 51 -10 24 0 44 -4 44 -10 0 -5 7 -10 15 -10 8 0 15 5 15 10 0 6 18
10 40 10 22 0 40 5 40 10 0 6 7 10 16 10 15 0 44 23 44 34 0 3 -29 6 -65 6
-37 0 -65 -4 -65 -10 0 -7 -6 -7 -17 -1 -10 5 -33 16 -50 23 -21 8 -33 20 -33
32 0 16 5 18 45 13 51 -7 92 7 100 35 6 17 23 18 298 18 192 0 287 4 277 10
-21 13 -1287 13 -1295 0z"/>
<path d="M1408 2860 c-5 -32 1 -37 20 -18 9 9 46 13 110 13 l97 0 3 -212 c1
-140 -1 -213 -8 -213 -5 0 -10 -4 -10 -10 0 -6 27 -10 61 -10 56 0 60 1 48 17
-20 23 -26 397 -8 420 11 13 30 15 108 11 58 -3 97 -10 99 -17 7 -22 22 -10
22 19 l0 30 -269 0 -269 0 -4 -30z"/>
<path d="M620 2380 l0 -490 25 0 25 0 0 474 c0 261 -3 481 -6 490 -3 9 -15 16
-25 16 -18 0 -19 -16 -19 -490z"/>
<path d="M1860 2762 c-12 -6 -15 -36 -15 -180 l0 -172 118 0 c69 0 117 4 117
10 0 5 -28 9 -62 8 -119 -2 -109 -10 -106 85 l3 82 48 3 c28 2 47 -1 47 -7 0
-6 9 -11 20 -11 11 0 20 7 20 15 0 12 -14 15 -70 15 l-70 0 0 65 0 65 80 0
c47 0 80 4 80 10 0 6 -35 10 -84 10 -46 0 -90 2 -98 4 -7 3 -20 2 -28 -2z"/>
<path d="M2245 2678 c-26 -51 -51 -97 -56 -102 -5 -6 -9 -18 -9 -28 0 -10 -4
-18 -10 -18 -5 0 -10 -9 -10 -20 0 -11 -4 -20 -10 -20 -5 0 -10 -8 -10 -19 0
-10 -7 -24 -15 -31 -22 -18 -18 -30 10 -30 16 0 25 6 25 15 0 23 42 108 60
122 26 21 114 16 144 -8 14 -11 26 -26 26 -32 0 -7 10 -31 22 -54 21 -40 26
-43 62 -43 39 0 40 0 20 20 -34 34 -44 49 -44 65 0 8 -3 15 -7 15 -5 0 -19 25
-33 55 -14 30 -28 55 -32 55 -5 0 -8 9 -8 20 0 11 -4 20 -8 20 -5 0 -19 23
-32 51 -13 28 -27 52 -31 55 -4 2 -28 -37 -54 -88z"/>
<path d="M2410 2753 c0 -6 -6 -14 -12 -17 -7 -3 -1 -3 14 0 25 5 100 8 151 5
17 -1 18 -12 15 -166 l-3 -165 30 0 30 0 -3 153 c-2 86 1 158 7 166 12 19 141
17 153 -2 8 -12 9 -10 12 24 1 9 -54 12 -196 13 -145 1 -198 -2 -198 -11z"/>
<path d="M2836 2762 c-13 -3 -14 -7 -6 -17 7 -8 9 -70 7 -174 l-3 -161 31 0
30 0 -3 75 -4 75 49 0 c47 0 51 -3 113 -65 35 -36 70 -65 77 -65 7 0 13 -4 13
-10 0 -5 17 -10 37 -10 l37 0 -22 20 c-12 11 -26 20 -32 20 -5 0 -10 5 -10 10
0 6 -4 10 -9 10 -13 0 -101 85 -101 97 0 6 13 24 30 41 39 42 47 74 23 106
-10 14 -23 26 -30 26 -6 0 -13 4 -15 9 -3 9 -178 19 -212 13z m172 -33 c2 -5
10 -9 17 -9 21 0 36 -66 23 -95 -16 -35 -71 -58 -119 -50 l-39 7 0 78 c0 53 4
80 13 84 17 8 101 -4 105 -15z"/>
<path d="M3300 2750 c0 -5 -7 -10 -15 -10 -52 0 -125 -93 -125 -159 0 -39 37
-106 66 -122 13 -7 24 -16 24 -21 0 -4 9 -8 20 -8 11 0 20 -4 20 -10 0 -6 27
-10 63 -10 44 0 58 3 47 10 -8 5 -25 10 -38 10 -38 0 -99 48 -121 96 -26 55
-26 94 -1 144 19 37 47 56 120 83 8 3 -2 6 -22 6 -21 1 -38 -3 -38 -9z"/>
<path d="M3481 2746 c81 -26 139 -94 139 -164 0 -44 -50 -132 -75 -132 -8 0
-15 -4 -15 -10 0 -5 -12 -10 -27 -10 -16 0 -35 -5 -43 -10 -11 -7 -2 -10 33
-10 26 0 47 5 47 10 0 6 9 10 20 10 11 0 20 4 20 8 0 4 14 16 30 25 17 10 30
24 30 30 0 7 9 23 20 37 21 26 28 110 10 110 -5 0 -10 7 -10 16 0 21 -69 84
-92 84 -10 0 -18 5 -18 10 0 6 -23 10 -52 9 l-53 -1 36 -12z"/>
<path d="M1056 2323 c-105 -206 -126 -249 -126 -260 0 -7 -3 -13 -7 -13 -9 0
-33 -49 -33 -67 0 -7 -4 -13 -10 -13 -5 0 -10 -9 -10 -20 0 -11 -4 -20 -9 -20
-4 0 -25 -38 -46 -85 -21 -47 -42 -85 -47 -85 -4 0 -8 -5 -8 -12 0 -19 -43
-108 -52 -108 -4 0 -8 -9 -8 -20 0 -11 -3 -20 -8 -20 -4 0 -12 -10 -17 -22
-14 -31 -72 -68 -109 -69 -30 0 -30 -1 -7 -10 25 -10 268 -6 278 5 4 3 -6 6
-21 6 -18 0 -30 7 -38 25 -13 28 3 79 58 185 19 35 34 70 34 76 0 29 30 34
205 35 136 1 181 -2 190 -13 24 -24 138 -253 144 -288 l6 -35 255 0 c268 0
323 8 403 53 45 25 87 63 87 79 0 7 5 13 10 13 6 0 10 9 10 20 0 11 5 20 10
20 6 0 10 18 10 40 0 22 -4 40 -10 40 -5 0 -10 9 -10 20 0 11 -4 20 -10 20 -5
0 -10 5 -10 10 0 17 -42 55 -78 71 -17 7 -32 17 -32 21 0 5 -9 8 -19 8 -11 0
-23 5 -26 10 -3 6 -15 10 -26 10 -29 0 -23 13 26 57 46 41 75 94 75 138 0 40
-34 95 -59 95 -6 0 -11 5 -11 10 0 6 -9 10 -20 10 -11 0 -20 4 -20 9 0 18
-120 31 -279 30 -91 -1 -159 -3 -150 -6 40 -10 44 -42 44 -372 0 -174 -3 -324
-8 -334 -6 -17 -10 -16 -37 13 -17 18 -30 38 -30 46 0 8 -3 14 -8 14 -4 0 -13
15 -21 33 -8 17 -22 44 -33 59 -10 14 -18 33 -18 41 0 9 -4 17 -8 19 -4 2 -22
30 -38 63 -28 53 -62 119 -145 275 -13 25 -27 47 -31 48 -5 2 -8 12 -8 23 0
10 -4 19 -10 19 -5 0 -10 6 -10 13 0 6 -14 40 -32 75 -40 77 -59 80 -92 15z
m840 -99 c48 -27 77 -80 78 -140 0 -45 -4 -59 -30 -91 -27 -33 -38 -39 -85
-44 -30 -3 -78 -3 -106 -1 l-53 4 0 144 c0 127 2 143 18 148 34 10 148 -3 178
-20z m-801 -54 c14 -22 25 -46 25 -55 0 -8 5 -15 10 -15 6 0 10 -6 10 -13 0
-18 24 -67 33 -67 4 0 7 -11 7 -25 0 -14 5 -25 10 -25 6 0 10 -9 10 -20 0 -11
5 -20 10 -20 6 0 10 -13 10 -30 l0 -30 -145 0 -145 0 0 25 c0 14 4 33 9 43 5
9 19 40 31 67 12 28 26 58 31 67 5 10 9 25 9 33 0 8 5 15 10 15 6 0 10 4 10 9
0 13 29 81 35 81 3 0 16 -18 30 -40z m832 -285 c69 -35 118 -85 137 -141 20
-60 20 -87 -1 -127 -33 -65 -86 -87 -205 -87 -93 0 -140 14 -152 45 -3 9 -6
88 -6 176 l0 159 88 0 c74 0 96 -4 139 -25z"/>
<path d="M2204 2255 c14 -14 28 -36 31 -48 4 -13 5 -160 3 -327 -3 -339 -7
-360 -63 -370 l-30 -6 38 -8 c24 -4 51 -2 72 5 28 11 42 11 70 0 23 -8 51 -10
82 -4 l48 7 -39 6 c-62 8 -76 45 -76 197 l0 123 103 0 102 0 140 -137 c119
-116 151 -141 213 -170 69 -31 79 -33 180 -32 59 0 127 4 152 8 l45 8 -37 2
c-28 1 -41 8 -57 30 -20 28 -21 41 -21 365 0 209 4 336 10 336 5 0 14 9 20 20
10 19 8 20 -95 20 l-106 0 27 -24 28 -23 4 -206 c6 -261 -5 -476 -24 -484 -15
-5 -96 48 -136 89 -14 15 -29 28 -32 28 -5 0 -98 85 -173 158 l-34 33 65 62
c64 61 105 129 106 175 0 42 -59 132 -87 132 -7 0 -13 5 -13 10 0 6 -8 10 -18
10 -10 0 -22 4 -28 9 -21 19 -138 31 -311 31 l-184 0 25 -25z m361 -26 c5 -5
16 -9 25 -9 25 0 84 -61 98 -101 14 -42 16 -149 2 -149 -5 0 -10 -7 -10 -16 0
-32 -69 -82 -121 -89 -59 -8 -189 3 -206 17 -14 12 -19 324 -5 345 13 21 193
23 217 2z"/>
<path d="M3360 2273 c8 -4 22 -16 32 -27 16 -19 17 -51 18 -347 0 -349 -3
-374 -49 -386 l-25 -6 25 -9 c16 -6 37 -5 60 2 22 8 54 10 80 5 62 -9 357 -18
394 -11 20 4 34 15 43 33 14 32 16 93 2 93 -5 0 -10 -7 -10 -16 0 -23 -36 -52
-80 -65 -22 -7 -86 -10 -154 -8 -113 4 -119 5 -141 31 -18 21 -24 44 -30 110
-10 126 -2 557 11 566 6 4 13 15 17 25 6 16 -3 17 -101 16 -59 0 -100 -3 -92
-6z"/>
</g>
</svg>
